<svg xmlns="http://www.w3.org/2000/svg" viewBox="0 0 1022.05 1022.05">
  <defs>
    <style>
      .cls-1{fill:#a41409;}
      .cls-2{fill:#5f0713;}
      .cls-3{fill:#eb890a;}
    </style>
  </defs>
  <path class="cls-1" d="M343.48 210.07c9.66-.22 17.85-.41 26.51-.61.46 1.77 1.15 3.22 1.17 4.67.86 64 1.9 128 2.39 192 .25 33.09-15.79 56.72-44.2 72.87-3.04 1.73-6.14 6.56-6.14 9.96-.04 31.2.34 62.4 1.31 93.59.15 4.8 2.85 10.54 6.23 14.03 9.19 9.49 13.71 20.2 13.86 33.39.56 49.99 1.7 99.97 2.1 149.96.16 19.66-9.23 33.14-23.97 37.07-22.38 5.96-42.44-7.38-43.9-30.92-1.47-23.81-.95-47.74-1.18-71.62-.29-30.56-.23-61.13-.81-91.69-.21-10.82 2.8-19.67 10.01-27.82 3.01-3.4 5.09-8.92 5.09-13.48-.03-30.56-.87-61.13-1.09-91.69-.05-6.61-2.57-9.91-8.43-13.06-29.09-15.63-46.24-38.94-46.25-73.34-.02-41.71-.75-83.42-1.13-125.13-.18-19.73-.28-39.46-.37-59.19-.01-2.77.22-5.55.36-9.01 9.22.02 17.71.04 27.2.06.31 19.37.72 38.01.89 56.66.39 43.29.66 86.59.99 129.89.01 1.91.15 3.82.19 5.73.15 7.82 2.94 13.88 11.42 15.18 6.44.98 13.59-5.49 14.85-13.53.73-4.68.6-9.52.54-14.29-.7-57-1.47-114-2.19-171-.03-2.49.33-4.98.57-8.35 9.05-.18 17.75-.35 26.97-.53.52 27.93 1.17 54.92 1.5 81.9.43 34.71.59 69.42.92 104.12.12 12.28 4.59 19.52 12.07 19.9 8.98.45 14.83-6.2 14.76-19.46-.22-38.85-1.2-77.69-1.72-116.54-.31-22.87-.34-45.74-.5-69.73Z"/>
  <path class="cls-3" d="M548.07 564.74c-31.94 12.72-67.58-2.72-80.23-34.78-11.87-30.06 2.72-63.44 33.06-75.61 32.3-12.96 70.49 2.19 82.53 32.74 11.77 29.87-4.37 65.31-35.35 77.65Z"/>
  <path class="cls-1" d="M829.2 512.17c0 165.67-132.62 300.35-297.49 303.68 0-.44-36.33-.8-78.31-1.05v-88.07h78.31c115.97-2.95 209.08-97.88 209.08-214.56s-93.1-211.61-209.08-214.55v.03c0-.44-36.33-.8-78.31-1.05v-88.07h78.31v-.02c164.87 3.32 297.49 138.01 297.49 303.66Z"/>
  <path class="cls-1" d="M705.38 512.2c0 96.81-77.39 174.74-173.68 176.91-.1 0-.19 0-.29 0-.04 0-.09 0-.13-.02-4.17-.4-38.55-.72-77.89-.95v-88.03h78.31v.04c37.15-4.95 89.34-19.92 89.34-87.95s-45.4-88.58-89.34-88.96c0-.44-36.33-.79-78.31-1.03v-88.04h78.31v.33c96.29 2.17 173.68 80.9 173.68 177.7Z"/>
  <path class="cls-2" d="M531.41 689.12h-.13v-.02s.1 0 .13.02Z"/>
  <path class="cls-2" d="M531.7 689.11v.08s-.1-.05-.29-.07c.1 0 .19 0 .29 0Z"/>
</svg>